<svg width="32" height="32" viewBox="0 0 32 32" fill="none" xmlns="http://www.w3.org/2000/svg">
  <!-- Background circle with gradient effect -->
  <defs>
    <linearGradient id="bgGradient" x1="0%" y1="0%" x2="100%" y2="100%">
      <stop offset="0%" style="stop-color:#1e3a8a;stop-opacity:1" />
      <stop offset="100%" style="stop-color:#22c55e;stop-opacity:1" />
    </linearGradient>
    <linearGradient id="wingGradient" x1="0%" y1="0%" x2="100%" y2="100%">
      <stop offset="0%" style="stop-color:#ffffff;stop-opacity:0.9" />
      <stop offset="100%" style="stop-color:#e5e7eb;stop-opacity:0.8" />
    </linearGradient>
  </defs>
  
  <!-- Background circle -->
  <circle cx="16" cy="16" r="16" fill="url(#bgGradient)"/>
  
  <!-- Eagle wings (more detailed) -->
  <path d="M6 10C6 10 11 6 16 6C21 6 26 10 26 10L24 16L26 22C26 22 21 26 16 26C11 26 6 22 6 22L8 16L6 10Z" fill="url(#wingGradient)" stroke="#ffffff" stroke-width="0.5"/>
  
  <!-- Inner wing detail -->
  <path d="M8 12C8 12 12 9 16 9C20 9 24 12 24 12L22 16L24 20C24 20 20 23 16 23C12 23 8 20 8 20L10 16L8 12Z" fill="none" stroke="#ffffff" stroke-width="0.3" opacity="0.6"/>
  
  <!-- Heart symbol for compassion -->
  <path d="M16 19C16 19 13.5 16.5 12.5 15.5C11.5 14.5 11.5 13.5 12.5 12.5C13.5 11.5 16 13.5 16 13.5C16 13.5 18.5 11.5 19.5 12.5C20.5 13.5 20.5 14.5 19.5 15.5C18.5 16.5 16 19 16 19Z" fill="#ef4444" stroke="#ffffff" stroke-width="0.3"/>
  
  <!-- Center circle representing unity -->
  <circle cx="16" cy="16" r="2.5" fill="#ffffff" stroke="#1e3a8a" stroke-width="0.5"/>
  
  <!-- Small accent dots -->
  <circle cx="12" cy="12" r="1" fill="#ffffff" opacity="0.7"/>
  <circle cx="20" cy="12" r="1" fill="#ffffff" opacity="0.7"/>
  <circle cx="12" cy="20" r="1" fill="#ffffff" opacity="0.7"/>
  <circle cx="20" cy="20" r="1" fill="#ffffff" opacity="0.7"/>
</svg>
